<?xml version="1.0" standalone="no"?>
<!DOCTYPE svg PUBLIC "-//W3C//DTD SVG 20010904//EN"
 "http://www.w3.org/TR/2001/REC-SVG-20010904/DTD/svg10.dtd">
<svg version="1.0" xmlns="http://www.w3.org/2000/svg"
 width="500.000000pt" height="500.000000pt" viewBox="0 0 500.000000 500.000000"
 preserveAspectRatio="xMidYMid meet">
<metadata>
Created by potrace 1.11, written by Peter Selinger 2001-2013
</metadata>
<g transform="translate(0.000000,500.000000) scale(0.100000,-0.100000)"
fill="#000000" stroke="none">
<path d="M0 2500 l0 -2500 2500 0 2500 0 0 2500 0 2500 -2500 0 -2500 0 0
-2500z m2447 1348 c39 -14 74 -38 108 -72 72 -72 135 -212 135 -300 l0 -43 46
-7 c26 -3 224 -6 440 -6 l394 0 0 -920 0 -920 -545 0 -545 0 0 391 c0 369 -1
391 -17 384 -51 -22 -100 -36 -139 -42 -50 -6 -46 4 -65 -168 -19 -169 -63
-252 -148 -275 -102 -27 -179 51 -211 217 -17 84 -8 338 14 418 40 144 130
266 232 315 77 38 198 39 312 5 l22 -7 -1 208 c-1 174 -12 408 -17 368 -1 -7
-21 -19 -44 -29 -53 -21 -99 -13 -155 26 -37 26 -49 29 -121 29 -107 0 -116 9
-109 103 4 56 13 85 46 151 46 87 88 127 186 172 62 30 108 30 182 2z"/>
<path d="M2215 2821 c-138 -36 -248 -172 -289 -358 -19 -85 -22 -315 -5 -395
13 -62 48 -135 77 -161 50 -46 153 -26 191 37 24 39 47 131 55 221 4 39 9 88
12 111 l6 41 65 13 c182 36 297 149 279 276 -12 93 -75 168 -165 199 -53 19
-182 28 -226 16z m210 -97 c65 -29 95 -71 95 -137 0 -26 -6 -60 -14 -75 -32
-60 -114 -113 -198 -125 -33 -5 -38 -3 -38 14 0 12 14 55 30 97 34 84 33 105
-6 100 -37 -4 -62 -42 -84 -127 -10 -40 -21 -75 -24 -78 -3 -3 -25 2 -49 11
-55 21 -57 21 -57 -8 0 -30 21 -52 67 -71 31 -13 34 -17 29 -47 -3 -18 -11
-80 -17 -138 -12 -119 -32 -173 -67 -178 -65 -9 -95 83 -96 288 0 121 3 158
22 223 48 169 112 244 225 267 51 10 141 2 182 -16z"/>
<path d="M2221 2716 c-84 -28 -145 -108 -183 -241 -19 -67 -23 -104 -23 -230
0 -162 13 -236 48 -260 46 -32 64 7 82 179 15 143 18 134 -43 167 -36 20 -52
73 -30 95 12 13 20 12 58 -1 24 -8 44 -14 45 -13 1 2 10 37 20 78 26 108 76
152 136 120 26 -14 24 -33 -12 -118 -16 -40 -29 -77 -27 -82 5 -15 128 32 159
61 27 25 29 32 29 102 0 42 -3 83 -6 92 -19 47 -169 78 -253 51z"/>
<path d="M3169 2819 c-62 -9 -119 -40 -159 -85 -41 -47 -56 -84 -69 -164 -6
-34 -12 -65 -14 -67 -3 -2 -35 1 -71 8 -72 12 -96 4 -96 -31 0 -22 5 -24 99
-41 l74 -13 -6 -120 c-4 -100 -27 -226 -41 -226 -2 0 -34 14 -72 31 -129 59
-229 48 -261 -28 -31 -75 12 -153 96 -173 64 -15 150 0 211 38 l45 28 114 -68
c176 -105 281 -136 364 -109 45 15 109 85 105 113 -5 32 -20 32 -58 -2 -84
-75 -187 -57 -390 70 -47 29 -86 54 -88 55 -2 2 3 14 11 27 29 44 49 133 55
243 l7 110 83 7 c160 13 255 60 300 148 29 56 25 115 -12 168 -46 66 -128 96
-227 81z m93 -79 c11 0 33 -13 49 -29 41 -42 41 -98 -2 -141 -17 -17 -43 -37
-58 -44 -35 -18 -122 -36 -176 -36 l-45 0 0 43 c0 105 50 179 135 202 28 8 56
12 63 9 8 -2 23 -4 34 -4z m-498 -691 c31 -11 58 -24 61 -29 14 -22 -103 -58
-150 -46 -36 9 -60 49 -45 75 14 28 62 28 134 0z"/>
</g>
</svg>
